<svg version="1.0" xmlns="http://www.w3.org/2000/svg"
 width="512.000000pt" height="512.000000pt" viewBox="0 0 512.000000 512.000000"
 preserveAspectRatio="xMidYMid meet">

<g transform="translate(0.000000,512.000000) scale(0.100000,-0.100000)"
fill="#000000" stroke="none">
<path d="M2696 4578 c-353 -31 -725 -171 -1008 -380 -97 -71 -112 -137 -46
-193 52 -44 85 -36 219 54 244 163 483 255 769 297 158 23 439 15 595 -16 727
-145 1289 -708 1437 -1440 20 -100 23 -145 23 -340 0 -198 -3 -239 -24 -340
-85 -416 -300 -783 -610 -1043 -237 -199 -525 -337 -831 -399 -101 -20 -144
-23 -345 -23 -211 1 -240 3 -356 27 -263 57 -526 174 -715 319 -58 45 -101 57
-143 39 -40 -16 -61 -51 -61 -101 0 -35 6 -47 36 -75 103 -98 409 -264 606
-328 321 -106 691 -130 1021 -66 845 163 1499 849 1621 1700 23 163 28 283 16
435 -76 1006 -866 1798 -1870 1875 -151 11 -192 11 -334 -2z"/>
<path d="M2763 4150 c-24 -10 -119 -144 -128 -182 -11 -42 19 -97 62 -114 63
-27 101 -8 157 77 61 91 67 109 55 154 -16 59 -85 89 -146 65z"/>
<path d="M1115 4107 c-47 -22 -88 -68 -172 -194 -97 -146 -196 -342 -257 -509
l-48 -131 -111 -44 c-72 -29 -116 -53 -128 -69 -35 -48 -79 -380 -79 -600 0
-220 44 -552 79 -600 12 -16 56 -40 128 -69 l111 -44 48 -131 c94 -258 307
-624 396 -684 45 -29 137 -41 187 -24 48 17 500 302 521 329 19 24 20 41 20
258 l0 232 -54 104 c-109 210 -150 382 -150 629 0 247 41 419 150 629 l54 104
0 234 0 233 -27 29 c-16 16 -136 96 -267 177 -239 148 -240 149 -305 151 -41
2 -78 -2 -96 -10z m300 -330 l180 -113 3 -152 3 -152 -50 -102 c-58 -119 -112
-278 -138 -405 -25 -125 -25 -461 0 -586 26 -127 80 -286 138 -405 l50 -102
-3 -152 -3 -152 -194 -123 c-107 -67 -199 -119 -204 -116 -18 11 -148 218
-196 313 -44 85 -121 260 -121 274 0 3 36 6 81 6 118 0 165 15 220 70 62 62
77 120 55 211 -83 336 -83 602 0 938 21 86 7 148 -49 208 -49 54 -109 73 -224
73 -46 0 -83 2 -83 5 0 13 66 166 105 245 52 104 109 199 172 288 36 51 47 60
61 52 9 -5 98 -60 197 -123z m-389 -709 c-37 -137 -66 -357 -66 -508 0 -151
29 -371 66 -507 l6 -23 -136 0 c-129 0 -141 2 -219 31 -45 18 -87 36 -93 41
-22 16 -47 265 -47 458 0 193 25 442 47 458 6 5 47 23 91 40 75 29 88 31 219
32 l138 0 -6 -22z"/>
<path d="M1233 3614 c-39 -19 -67 -74 -58 -114 8 -37 48 -77 85 -85 41 -9 95
19 114 60 9 18 16 38 16 45 0 30 -34 80 -65 94 -41 20 -52 20 -92 0z"/>
<path d="M1233 1694 c-39 -19 -67 -74 -58 -114 8 -37 48 -77 85 -85 41 -9 95
19 114 60 9 18 16 38 16 45 0 30 -34 80 -65 94 -41 20 -52 20 -92 0z"/>
<path d="M3447 3949 c-64 -33 -81 -46 -93 -75 -29 -69 21 -144 95 -144 47 0
171 59 199 95 33 42 30 99 -7 136 -43 42 -94 39 -194 -12z"/>
<path d="M2007 3900 c-33 -27 -47 -75 -47 -170 0 -86 13 -114 65 -136 45 -19
100 -2 124 37 22 36 37 183 22 221 -25 67 -109 91 -164 48z"/>
<path d="M2760 3619 c-244 -29 -476 -144 -647 -322 -93 -97 -139 -166 -198
-290 -192 -407 -102 -894 223 -1209 322 -311 790 -391 1189 -203 124 59 193
105 290 198 329 315 421 805 228 1214 -163 345 -472 566 -855 613 -95 11 -123
11 -230 -1z m289 -224 c338 -71 603 -338 667 -672 40 -211 -5 -448 -118 -623
-54 -83 -175 -204 -258 -258 -279 -181 -652 -176 -936 13 -237 158 -374 418
-374 708 1 234 83 431 249 598 122 121 263 199 426 234 82 18 259 18 344 0z"/>
<path d="M2833 3294 c-39 -19 -67 -74 -58 -114 8 -37 48 -77 85 -85 41 -9 95
19 114 60 9 18 16 38 16 45 0 30 -34 80 -65 94 -41 20 -52 20 -92 0z"/>
<path d="M2390 3113 c-57 -21 -85 -94 -55 -148 51 -96 195 -61 195 47 -1 77
-70 127 -140 101z"/>
<path d="M3280 3104 c-40 -29 -49 -46 -50 -92 0 -108 144 -143 195 -47 22 40
14 93 -19 124 -33 31 -94 38 -126 15z"/>
<path d="M2801 2979 c-219 -43 -376 -261 -342 -476 30 -191 173 -334 364 -364
221 -35 435 124 478 355 32 172 -72 371 -234 446 -97 46 -175 57 -266 39z
m193 -239 c60 -41 90 -93 94 -164 4 -72 -12 -119 -59 -165 -46 -46 -93 -63
-165 -59 -72 4 -119 31 -162 92 -24 35 -27 49 -27 117 0 70 3 81 30 120 45 64
104 91 186 87 50 -3 75 -10 103 -28z"/>
<path d="M2193 2654 c-39 -19 -67 -74 -58 -114 8 -37 48 -77 85 -85 41 -9 95
19 114 60 9 18 16 38 16 45 0 30 -34 80 -65 94 -41 20 -52 20 -92 0z"/>
<path d="M3473 2654 c-39 -19 -67 -74 -58 -114 3 -16 18 -40 31 -54 35 -34 75
-41 118 -21 32 15 66 64 66 95 0 30 -34 80 -65 94 -41 20 -52 20 -92 0z"/>
<path d="M2356 2183 c-45 -45 -46 -105 -4 -150 23 -25 75 -39 106 -29 73 24
97 122 43 177 -41 40 -106 41 -145 2z"/>
<path d="M3259 2181 c-74 -75 -3 -202 99 -176 66 16 100 91 67 150 -33 62
-116 75 -166 26z"/>
<path d="M2833 2014 c-39 -19 -67 -74 -58 -114 3 -16 18 -40 31 -54 35 -34 75
-41 118 -21 32 15 66 64 66 95 0 30 -34 80 -65 94 -41 20 -52 20 -92 0z"/>
<path d="M3951 3464 c-59 -41 -59 -138 0 -173 45 -27 197 -38 238 -17 92 48
67 182 -37 200 -74 12 -176 7 -201 -10z"/>
<path d="M4220 2793 c-50 -25 -70 -84 -46 -133 16 -34 113 -108 170 -130 72
-27 150 48 131 126 -9 33 -21 47 -87 91 -90 62 -120 71 -168 46z"/>
<path d="M4079 2061 c-21 -22 -29 -39 -29 -66 0 -48 59 -175 95 -203 58 -46
141 -19 165 54 11 32 9 42 -31 124 -47 100 -69 120 -129 120 -33 0 -48 -6 -71
-29z"/>
<path d="M3653 1525 c-43 -18 -59 -55 -67 -151 -11 -121 20 -174 100 -174 82
0 114 53 114 190 0 86 -13 114 -66 136 -40 17 -41 17 -81 -1z"/>
<path d="M2204 1356 c-84 -39 -114 -73 -114 -128 0 -30 7 -46 29 -69 45 -44
84 -42 186 8 86 43 104 65 105 121 0 35 -6 49 -29 73 -40 39 -85 38 -177 -5z"/>
<path d="M2975 1265 c-43 -22 -127 -154 -127 -200 0 -71 60 -116 130 -99 40
10 94 72 133 152 19 38 20 49 10 83 -19 63 -88 94 -146 64z"/>
</g>
</svg>
