<?xml version="1.0" encoding="UTF-8"?>
<!DOCTYPE svg PUBLIC "-//W3C//DTD SVG 1.1//EN" "http://www.w3.org/Graphics/SVG/1.1/DTD/svg11.dtd">
<svg xmlns="http://www.w3.org/2000/svg" version="1.1" width="294px" height="67px" style="shape-rendering:geometricPrecision; text-rendering:geometricPrecision; image-rendering:optimizeQuality; fill-rule:evenodd; clip-rule:evenodd" xmlns:xlink="http://www.w3.org/1999/xlink">
<g><path style="opacity:1" fill="#f9f6f6" d="M 4.5,-0.5 C 22.8333,-0.5 41.1667,-0.5 59.5,-0.5C 57.5662,2.27156 58.2329,4.10489 61.5,5C 59.7834,6.55876 57.7834,7.39209 55.5,7.5C 55.7175,15.128 52.7175,20.128 46.5,22.5C 45.6919,22.1924 45.0253,21.6924 44.5,21C 36.1316,20.2596 27.7982,20.4263 19.5,21.5C 19.5861,23.677 20.2528,25.677 21.5,27.5C 27.7985,28.4963 34.1318,28.8297 40.5,28.5C 40.6495,29.552 40.4828,30.552 40,31.5C 38.2458,29.75 36.0792,29.0833 33.5,29.5C 30.2264,29.7988 26.8931,30.1321 23.5,30.5C 21.2086,32.8173 21.2086,34.984 23.5,37C 27.5715,37.6582 31.5715,37.3248 35.5,36C 36.3805,35.2917 37.0472,34.4584 37.5,33.5C 38.2589,35.6657 37.2589,37.1657 34.5,38C 29.3211,38.0545 24.3211,38.7211 19.5,40C 20.5596,41.298 21.7263,42.4647 23,43.5C 23.9454,43.0946 24.6121,42.428 25,41.5C 27.7638,46.6995 30.4305,46.6995 33,41.5C 34.5577,43.7676 36.7244,44.9343 39.5,45C 38.944,45.3826 38.6107,45.8826 38.5,46.5C 33.4889,46.3341 28.4889,46.5007 23.5,47C 22.8333,48.6667 22.1667,50.3333 21.5,52C 20.9515,53.5961 21.6182,54.7627 23.5,55.5C 21.7761,55.4607 21.4427,55.794 22.5,56.5C 21.6136,57.7759 20.6136,57.7759 19.5,56.5C 20.7059,54.4841 20.7059,52.4841 19.5,50.5C 18.3578,51.8262 17.0245,52.8262 15.5,53.5C 15.5077,51.4565 16.1743,49.2898 17.5,47C 17.1667,46.6667 16.8333,46.3333 16.5,46C 17.5742,45.2613 18.2409,44.2613 18.5,43C 18.164,35.0027 18.164,26.836 18.5,18.5C 28.5009,18.4259 38.3342,18.4259 48,18.5C 48.2653,17.0105 49.432,15.6772 51.5,14.5C 53.0781,12.6824 52.5781,11.6824 50,11.5C 38.4828,10.1206 26.9828,10.2872 15.5,12C 14.6266,13.045 13.6266,13.8783 12.5,14.5C 10.8762,14.3601 9.70956,15.0267 9,16.5C 8.5001,29.8292 8.33344,43.1625 8.5,56.5C 7.83333,59.8333 7.16667,63.1667 6.5,66.5C 6.16667,66.5 5.83333,66.5 5.5,66.5C 3.27224,65.6229 1.27224,64.2896 -0.5,62.5C -0.5,42.8333 -0.5,23.1667 -0.5,3.5C 1.19107,2.13632 2.85774,0.802988 4.5,-0.5 Z M 51.5,14.5 C 49.432,15.6772 48.2653,17.0105 48,18.5C 38.3342,18.4259 28.5009,18.4259 18.5,18.5C 18.164,26.836 18.164,35.0027 18.5,43C 18.2409,44.2613 17.5742,45.2613 16.5,46C 16.8333,46.3333 17.1667,46.6667 17.5,47C 16.1743,49.2898 15.5077,51.4565 15.5,53.5C 13.5648,54.1495 11.5648,54.4828 9.5,54.5C 9.74097,47.962 9.74097,41.2953 9.5,34.5C 10.1891,28.8529 10.6891,23.1862 11,17.5C 11.5133,16.4734 12.0133,15.4734 12.5,14.5C 13.6266,13.8783 14.6266,13.045 15.5,12C 26.9828,10.2872 38.4828,10.1206 50,11.5C 52.5781,11.6824 53.0781,12.6824 51.5,14.5 Z"/></g>
<g><path style="opacity:1" fill="#f9f9f8" d="M 59.5,-0.5 C 60.1667,-0.5 60.8333,-0.5 61.5,-0.5C 62.1667,0.5 62.8333,1.5 63.5,2.5C 64.4762,22.454 64.8095,42.454 64.5,62.5C 63.3282,64.539 61.6616,65.8724 59.5,66.5C 41.8333,66.5 24.1667,66.5 6.5,66.5C 7.16667,63.1667 7.83333,59.8333 8.5,56.5C 11.925,56.6332 12.2583,55.9665 9.5,54.5C 11.5648,54.4828 13.5648,54.1495 15.5,53.5C 17.0245,52.8262 18.3578,51.8262 19.5,50.5C 20.7059,52.4841 20.7059,54.4841 19.5,56.5C 20.6136,57.7759 21.6136,57.7759 22.5,56.5C 33.5,56.5 44.5,56.5 55.5,56.5C 55.6602,54.8008 55.4935,53.1341 55,51.5C 54.3457,50.3044 53.8457,50.3044 53.5,51.5C 54.2458,52.7362 54.5792,54.0695 54.5,55.5C 49.8333,55.5 45.1667,55.5 40.5,55.5C 44.2984,54.5166 48.2984,54.1832 52.5,54.5C 52.9529,50.5696 51.2863,48.0696 47.5,47C 44.5184,46.502 41.5184,46.3354 38.5,46.5C 38.6107,45.8826 38.944,45.3826 39.5,45C 36.7244,44.9343 34.5577,43.7676 33,41.5C 30.4305,46.6995 27.7638,46.6995 25,41.5C 24.6121,42.428 23.9454,43.0946 23,43.5C 21.7263,42.4647 20.5596,41.298 19.5,40C 24.3211,38.7211 29.3211,38.0545 34.5,38C 37.2589,37.1657 38.2589,35.6657 37.5,33.5C 36.4502,33.0954 36.4502,32.4288 37.5,31.5C 36.0508,30.8281 34.7175,30.1614 33.5,29.5C 36.0792,29.0833 38.2458,29.75 40,31.5C 40.4828,30.552 40.6495,29.552 40.5,28.5C 34.1318,28.8297 27.7985,28.4963 21.5,27.5C 20.2528,25.677 19.5861,23.677 19.5,21.5C 27.7982,20.4263 36.1316,20.2596 44.5,21C 45.0253,21.6924 45.6919,22.1924 46.5,22.5C 52.7175,20.128 55.7175,15.128 55.5,7.5C 57.7834,7.39209 59.7834,6.55876 61.5,5C 58.2329,4.10489 57.5662,2.27156 59.5,-0.5 Z"/></g>
<g><path style="opacity:1" fill="#f9faf9" d="M 72.5,10.5 C 73.5735,11.2506 73.7401,12.2506 73,13.5C 72.5172,12.552 72.3505,11.552 72.5,10.5 Z"/></g>
<g><path style="opacity:1" fill="#f9f6f5" d="M 293.5,14.5 C 293.5,15.1667 293.5,15.8333 293.5,16.5C 292.167,16.8333 292.167,17.1667 293.5,17.5C 293.5,22.1667 293.5,26.8333 293.5,31.5C 292.314,34.3397 290.314,36.5064 287.5,38C 277.833,38.3333 268.167,38.6667 258.5,39C 258,39.5 257.5,40 257,40.5C 256.74,44.2498 256.073,47.9164 255,51.5C 253.961,52.7101 252.794,53.7101 251.5,54.5C 249.856,54.7135 248.356,54.3802 247,53.5C 246.244,40.4741 246.41,27.4741 247.5,14.5C 248.518,11.3168 250.685,9.31684 254,8.5C 264.394,9.72631 274.561,9.72631 284.5,8.5C 288.043,9.76551 291.043,11.7655 293.5,14.5 Z M 279.5,21.5 C 281.847,22.6069 282.18,24.2736 280.5,26.5C 276.046,27.7892 271.88,27.7892 268,26.5C 264.771,27.5297 261.938,29.1964 259.5,31.5C 254.587,25.071 256.087,21.071 264,19.5C 265.438,20.7185 267.105,21.3852 269,21.5C 272.347,21.1228 275.847,21.1228 279.5,21.5 Z"/></g>
<g><path style="opacity:1" fill="#f9faf9" d="M 122.5,11.5 C 123.833,12.1667 123.833,12.1667 122.5,11.5 Z"/></g>
<g><path style="opacity:1" fill="#f8f3f0" d="M 219.5,14.5 C 226.313,28.1273 233.647,41.4606 241.5,54.5C 236.497,57.5232 231.997,56.8566 228,52.5C 225.25,48.6682 222.75,44.6682 220.5,40.5C 214.5,39.8333 208.5,39.1667 202.5,38.5C 203.506,37.6043 203.506,36.9377 202.5,36.5C 198.874,42.9223 194.874,49.0889 190.5,55C 186.574,58.3947 182.907,58.228 179.5,54.5C 186.766,40.7264 194.266,27.0598 202,13.5C 208.199,7.95193 214.032,8.28526 219.5,14.5 Z M 211.5,28.5 C 209.007,28.8693 208.34,28.2027 209.5,26.5C 209.369,25.7611 209.536,25.0944 210,24.5C 211.188,25.5634 211.688,26.8967 211.5,28.5 Z"/></g>
<g><path style="opacity:1" fill="#f9faf9" d="M 173.5,14.5 C 173.369,13.7611 173.536,13.0944 174,12.5C 174.692,13.4368 174.525,14.1034 173.5,14.5 Z"/></g>
<g><path style="opacity:1" fill="#f9faf9" d="M 219.5,13.5 C 220.833,14.1667 220.833,14.1667 219.5,13.5 Z"/></g>
<g><path style="opacity:1" fill="#f9faf9" d="M 73.5,15.5 C 72.8333,16.1667 72.8333,16.1667 73.5,15.5 Z"/></g>
<g><path style="opacity:1" fill="#f9f4f2" d="M 173.5,14.5 C 173.953,15.4584 174.619,16.2917 175.5,17C 174.986,22.0243 172.652,26.0243 168.5,29C 160.248,33.2804 152.581,38.2804 145.5,44C 146.872,44.4017 148.205,44.9017 149.5,45.5C 153.357,44.9572 157.191,44.6238 161,44.5C 163.607,45.1233 166.107,45.79 168.5,46.5C 170.224,48.9138 171.558,51.5804 172.5,54.5C 159.537,55.4434 146.537,55.7767 133.5,55.5C 126.459,51.8647 124.959,46.5313 129,39.5C 135.306,34.5394 142.139,30.3728 149.5,27C 151.167,25.3333 152.833,23.6667 154.5,22C 153.051,20.883 151.384,20.2163 149.5,20C 143.795,20.9977 138.128,20.6644 132.5,19C 129.163,17.1745 127.163,14.3412 126.5,10.5C 140.488,9.3339 154.488,9.16723 168.5,10C 170.687,11.025 172.354,12.525 173.5,14.5 Z"/></g>
<g><path style="opacity:1" fill="#f9dad9" d="M 12.5,14.5 C 12.0133,15.4734 11.5133,16.4734 11,17.5C 10.6891,23.1862 10.1891,28.8529 9.5,34.5C 9.74097,41.2953 9.74097,47.962 9.5,54.5C 12.2583,55.9665 11.925,56.6332 8.5,56.5C 8.33344,43.1625 8.5001,29.8292 9,16.5C 9.70956,15.0267 10.8762,14.3601 12.5,14.5 Z"/></g>
<g><path style="opacity:1" fill="#f9f4f2" d="M 108.5,29.5 C 104.256,32.4166 104.59,34.4166 109.5,35.5C 112.731,40.2391 116.564,44.5724 121,48.5C 121.497,51.146 121.664,53.8127 121.5,56.5C 118.393,56.6488 115.393,56.1488 112.5,55C 107.667,50.1667 102.833,45.3333 98,40.5C 92.7608,46.4099 86.9275,51.5766 80.5,56C 78.5273,56.4955 76.5273,56.6621 74.5,56.5C 74.3359,53.8127 74.5026,51.146 75,48.5C 75.3826,47.944 75.8826,47.6107 76.5,47.5C 81.1312,43.3701 85.6312,39.0367 90,34.5C 90.7494,33.365 90.5827,32.365 89.5,31.5C 88.8933,31.6236 88.56,31.9569 88.5,32.5C 83.8719,26.5365 78.8719,20.8698 73.5,15.5C 74.3414,13.6208 74.6747,11.6208 74.5,9.5C 77.6492,9.21138 80.6492,9.71138 83.5,11C 87.6937,15.1937 91.8604,19.3604 96,23.5C 102.018,20.1659 107.518,15.9993 112.5,11C 115.351,9.71138 118.351,9.21138 121.5,9.5C 121.261,11.4672 121.594,13.3005 122.5,15C 118.33,20.3362 113.663,25.1696 108.5,29.5 Z"/></g>
<g><path style="opacity:1" fill="#f4cfac" d="M 211.5,28.5 C 211.688,26.8967 211.188,25.5634 210,24.5C 209.536,25.0944 209.369,25.7611 209.5,26.5C 208.522,26.189 207.855,25.5223 207.5,24.5C 211.063,21.4625 213.063,22.1291 213.5,26.5C 213.253,27.7133 212.586,28.38 211.5,28.5 Z"/></g>
<g><path style="opacity:1" fill="#fae1e0" d="M 247.5,14.5 C 246.41,27.4741 246.244,40.4741 247,53.5C 248.356,54.3802 249.856,54.7135 251.5,54.5C 249.951,56.4054 248.118,56.7387 246,55.5C 245.333,42.8333 245.333,30.1667 246,17.5C 246.232,16.2625 246.732,15.2625 247.5,14.5 Z"/></g>
<g><path style="opacity:1" fill="#efc9cb" d="M 280.5,26.5 C 282.18,24.2736 281.847,22.6069 279.5,21.5C 280.261,20.6091 281.261,19.9424 282.5,19.5C 283.787,22.7087 283.787,25.8753 282.5,29C 276.833,29.6667 271.167,29.6667 265.5,29C 269.833,28.6667 274.167,28.3333 278.5,28C 279.416,27.7216 280.082,27.2216 280.5,26.5 Z"/></g>
<g><path style="opacity:1" fill="#f7b9b8" d="M 108.5,29.5 C 108.488,31.4121 108.821,33.4121 109.5,35.5C 104.59,34.4166 104.256,32.4166 108.5,29.5 Z"/></g>
<g><path style="opacity:1" fill="#f7c9c7" d="M 76.5,47.5 C 80.5,42.5 84.5,37.5 88.5,32.5C 88.56,31.9569 88.8933,31.6236 89.5,31.5C 90.5827,32.365 90.7494,33.365 90,34.5C 85.6312,39.0367 81.1312,43.3701 76.5,47.5 Z"/></g>
<g><path style="opacity:1" fill="#fadbda" d="M 63.5,2.5 C 64.1174,2.61071 64.6174,2.94404 65,3.5C 65.1798,21.5437 65.6798,39.5437 66.5,57.5C 65.9724,59.3361 65.3058,61.0028 64.5,62.5C 64.8095,42.454 64.4762,22.454 63.5,2.5 Z"/></g>
<g><path style="opacity:1" fill="#f3cccb" d="M 22.5,56.5 C 21.4427,55.794 21.7761,55.4607 23.5,55.5C 29.1667,55.5 34.8333,55.5 40.5,55.5C 45.1667,55.5 49.8333,55.5 54.5,55.5C 54.5792,54.0695 54.2458,52.7362 53.5,51.5C 53.8457,50.3044 54.3457,50.3044 55,51.5C 55.4935,53.1341 55.6602,54.8008 55.5,56.5C 44.5,56.5 33.5,56.5 22.5,56.5 Z"/></g>
<g><path style="opacity:1" fill="#fad0ce" d="M 168.5,46.5 C 172.745,48.5177 174.411,51.6844 173.5,56C 159.994,56.827 146.66,56.6604 133.5,55.5C 146.537,55.7767 159.537,55.4434 172.5,54.5C 171.558,51.5804 170.224,48.9138 168.5,46.5 Z"/></g>
</svg>
