<?xml version="1.0" encoding="UTF-8"?>
<svg version="1.1" xmlns="http://www.w3.org/2000/svg" width="294" height="67">
<path d="M0 0 C1.12789444 -0.01260864 2.25578888 -0.02521729 3.41786194 -0.03820801 C5.2305381 -0.02606262 5.2305381 -0.02606262 7.07983398 -0.01367188 C8.32844711 -0.01749878 9.57706024 -0.02132568 10.86351013 -0.02526855 C13.5008821 -0.02798867 16.1367668 -0.02264122 18.77392578 -0.00390625 C22.14916673 0.01890769 25.52313704 0.00573953 28.89833164 -0.01819611 C32.1255444 -0.03614467 35.35260464 -0.02357067 38.57983398 -0.01367188 C40.39554649 -0.02581726 40.39554649 -0.02581726 42.24794006 -0.03820801 C43.93505348 -0.01929504 43.93505348 -0.01929504 45.65625 0 C47.13920311 0.00477356 47.13920311 0.00477356 48.65211487 0.00964355 C52.06228519 0.67296637 53.22588186 1.72942832 55.26342773 4.51757812 C55.79586792 7.05296326 55.79586792 7.05296326 55.84106445 9.94116211 C55.88032547 11.56821327 55.88032547 11.56821327 55.92037964 13.22813416 C55.92788239 14.3948616 55.93538513 15.56158905 55.94311523 16.76367188 C55.96439484 17.96693619 55.98567444 19.1702005 56.00759888 20.40992737 C56.04848509 22.95422317 56.07980685 25.49868797 56.10229492 28.04321289 C56.13826125 31.9370543 56.206184 35.82934869 56.27905273 39.72265625 C56.31480087 42.19463479 56.34871619 44.66664066 56.38061523 47.13867188 C56.40026337 48.30337509 56.4199115 49.46807831 56.44015503 50.66807556 C56.44741608 51.7559285 56.45467712 52.84378143 56.4621582 53.96459961 C56.4722995 54.91850082 56.4824408 55.87240204 56.4928894 56.85520935 C56.23305033 59.87003725 55.73584598 61.86689002 54.26342773 64.51757812 C50.79012218 67.23617833 48.17744935 67.8946112 43.81811523 67.90576172 C42.75351074 67.9152182 41.68890625 67.92467468 40.59204102 67.93441772 C38.88250244 67.92530869 38.88250244 67.92530869 37.13842773 67.91601562 C35.95877441 67.9188858 34.77912109 67.92175598 33.5637207 67.92471313 C31.07234212 67.92675248 28.58094747 67.92123175 26.08959961 67.90869141 C22.27738625 67.89263691 18.46623314 67.90854555 14.65405273 67.92773438 C12.2321754 67.92575192 9.81029872 67.9219082 7.38842773 67.91601562 C6.24873535 67.92208832 5.10904297 67.92816101 3.93481445 67.93441772 C2.87020996 67.92496124 1.80560547 67.91550476 0.70874023 67.90576172 C-0.22437988 67.90337494 -1.1575 67.90098816 -2.11889648 67.89852905 C-5.55900995 67.39788859 -8.26293369 65.9912167 -10.73657227 63.51757812 C-10.8565683 61.69837597 -10.90676611 59.87452801 -10.92944336 58.05151367 C-10.94550629 56.8832756 -10.96156921 55.71503754 -10.9781189 54.51139832 C-11.02237268 49.15904116 -11.0640838 43.80683327 -11.08666992 38.4543457 C-11.10330763 34.92654243 -11.14807046 31.39967532 -11.19904137 27.87222576 C-11.24080569 24.50796619 -11.24785225 21.14379148 -11.26000977 17.77929688 C-11.28267914 16.51252609 -11.30534851 15.24575531 -11.32870483 13.94059753 C-11.3258548 12.76290298 -11.32300476 11.58520844 -11.32006836 10.37182617 C-11.32815521 9.33559616 -11.33624207 8.29936615 -11.34457397 7.23173523 C-10.73657227 4.51757813 -10.73657227 4.51757813 -8.55863953 2.18403625 C-5.38608139 0.31060986 -3.65460961 0.01175457 0 0 Z M2.37670898 14.99804688 C-0.52674252 18.99489805 -0.5162471 23.03113152 -0.54907227 27.83007812 C-0.57348389 28.69858398 -0.59789551 29.56708984 -0.62304688 30.46191406 C-0.68972425 33.14757136 -0.71889539 35.83118341 -0.73657227 38.51757812 C-0.74495117 39.37206543 -0.75333008 40.22655273 -0.76196289 41.10693359 C-0.80324395 45.91148543 -0.79258171 50.71321267 -0.73657227 55.51757812 C2.23342773 55.02257813 2.23342773 55.02257813 5.26342773 54.51757812 C5.57280273 53.50695313 5.88217773 52.49632812 6.20092773 51.45507812 C6.37495117 50.88660156 6.54897461 50.318125 6.72827148 49.73242188 C8.35099969 43.01645914 8.3864044 36.4396308 8.32592773 29.58007812 C8.30530273 26.25945313 8.28467773 22.93882813 8.26342773 19.51757812 C18.49342773 19.51757812 28.72342773 19.51757812 39.26342773 19.51757812 C41.26342773 15.75328039 41.26342773 15.75328039 42.26342773 12.51757812 C38.63253044 11.68451511 35.27468661 11.38906448 31.55249023 11.38476562 C29.93213867 11.38283203 29.93213867 11.38283203 28.27905273 11.38085938 C27.16014648 11.38472656 26.04124023 11.38859375 24.88842773 11.39257812 C23.77725586 11.38871094 22.66608398 11.38484375 21.52124023 11.38085938 C11.24255321 10.8553431 11.24255321 10.8553431 2.37670898 14.99804688 Z M12.26342773 31.51757812 C11.4285042 33.94217599 11.4285042 33.94217599 11.26342773 36.51757812 C13.24330585 38.93700499 13.24330585 38.93700499 17.07592773 38.76757812 C20.52228073 38.66105449 23.28996882 38.40977925 26.26342773 36.51757812 C27.15728937 33.96982506 27.15728937 33.96982506 27.26342773 31.51757812 C25.84709438 31.34810234 24.43034241 31.18212305 23.01342773 31.01757812 C22.22452148 30.92476562 21.43561523 30.83195312 20.62280273 30.73632812 C16.31644009 30.28530505 16.31644009 30.28530505 12.26342773 31.51757812 Z M13.26342773 47.51757812 C12.60342773 49.82757813 11.94342773 52.13757812 11.26342773 54.51757812 C13.20549997 56.89898859 13.20549997 56.89898859 16.75561523 56.74804688 C18.21662047 56.74535657 19.67763793 56.73031038 21.13842773 56.70507812 C22.27622681 56.69541016 22.27622681 56.69541016 23.43701172 56.68554688 C29.74026006 56.6004487 35.9952345 56.19391497 42.26342773 55.51757812 C42.07927341 52.57666225 42.07927341 52.57666225 41.26342773 49.51757812 C38.1225714 47.32440957 35.37791099 47.28231766 31.62280273 47.32226562 C30.01791992 47.33193359 30.01791992 47.33193359 28.38061523 47.34179688 C27.26944336 47.35855469 26.15827148 47.3753125 25.01342773 47.39257812 C23.88678711 47.40160156 22.76014648 47.410625 21.59936523 47.41992188 C18.82050409 47.44347155 16.04207384 47.47636133 13.26342773 47.51757812 Z " fill="#FDFAFA" transform="translate(10.736572265625,-0.517578125)"/>
<path d="M0 0 C5.88981485 -0.12375961 11.77887012 -0.21441514 17.66967773 -0.2746582 C19.67274156 -0.2997755 21.67571398 -0.33387595 23.6784668 -0.37719727 C26.56061366 -0.43797188 29.44154721 -0.46623732 32.32421875 -0.48828125 C33.21711105 -0.51408768 34.11000336 -0.5398941 35.029953 -0.56648254 C39.48967816 -0.56848641 41.37076351 -0.4947794 44.97973633 2.34301758 C49.03703405 7.67903825 49.03703405 7.67903825 48.625 11.25 C45.66540407 19.87613936 35.99479115 23.91671746 28.46044922 27.89208984 C25.10211386 29.68464441 23.14874567 30.77688149 21 34 C24.18431206 34.82175795 27.1082293 35.04467379 30.375 35 C40.65675149 34.94876204 40.65675149 34.94876204 44.875 38.25 C47.00873011 41.0112978 47.80825339 42.54856095 48 46 C45.07505365 48.92494635 34.31525096 47.32352357 30.16430664 47.35009766 C28.27192863 47.36662215 26.37961213 47.39386576 24.48754883 47.43212891 C21.75829706 47.48705304 19.0305122 47.50879852 16.30078125 47.5234375 C15.45993484 47.54610687 14.61908844 47.56877625 13.75276184 47.59213257 C9.58446777 47.57722972 6.82468383 47.30648532 3.48510742 44.68212891 C0.38144191 41.33240209 -0.07963594 39.53924844 0 35 C1.80111798 28.34971822 7.42444644 25.39748312 13 22 C15.86257261 20.43622174 18.73402086 18.91409318 21.65234375 17.45703125 C24.13806427 15.91431286 25.41947061 14.43599744 27 12 C24.17374322 11.18254008 21.80685241 10.9380856 18.875 11.0625 C13.8618721 11.1039994 8.71519522 10.80437073 4 9 C1.25337804 6.19123728 0.67542242 3.79209289 0 0 Z " fill="#FDFAF8" transform="translate(127,10)"/>
<path d="M0 0 C2.28078551 0.00850767 4.55906131 -0.02026973 6.83959961 -0.05200195 C8.30118741 -0.0536144 9.7627796 -0.0530356 11.22436523 -0.05004883 C13.20327759 -0.05282837 13.20327759 -0.05282837 15.22216797 -0.05566406 C19.42261752 0.52471137 21.59703852 1.77534774 24.85327148 4.44604492 C25.71264648 6.75854492 25.71264648 6.75854492 25.85327148 9.44604492 C25.95381836 11.11666992 25.95381836 11.11666992 26.05639648 12.82104492 C26.07186523 14.01729492 26.08733398 15.21354492 26.10327148 16.44604492 C26.12905273 17.64229492 26.15483398 18.83854492 26.18139648 20.07104492 C25.82453817 23.74158758 25.07541658 25.53856535 22.85327148 28.44604492 C19.26875467 30.8357228 17.51483079 30.73540431 13.25170898 30.82495117 C11.95749023 30.85911133 10.66327148 30.89327148 9.32983398 30.9284668 C7.96265948 30.95581684 6.59547151 30.98250148 5.22827148 31.00854492 C2.54836554 31.06626888 -0.13110572 31.13175559 -2.81079102 31.19995117 C-4.00140137 31.22387939 -5.19201172 31.24780762 -6.41870117 31.27246094 C-9.05980378 31.13886106 -9.05980378 31.13886106 -10.14672852 32.44604492 C-10.39016803 34.19411659 -10.6164673 35.94458912 -10.83422852 37.69604492 C-11.50365657 41.56161445 -12.04161455 44.05372725 -15.02172852 46.69604492 C-18.14672852 48.44604492 -18.14672852 48.44604492 -20.34204102 48.05541992 C-20.93758789 47.85432617 -21.53313477 47.65323242 -22.14672852 47.44604492 C-22.22111825 42.14415526 -22.27544363 36.84257224 -22.31152344 31.5402832 C-22.32657091 29.738146 -22.34701381 27.93604519 -22.37304688 26.1340332 C-22.40960873 23.53742471 -22.42649533 20.94130218 -22.43969727 18.34448242 C-22.46292305 17.14412857 -22.46292305 17.14412857 -22.48661804 15.91952515 C-22.48807191 11.04105884 -21.98033668 7.60179792 -19.14672852 3.44604492 C-13.68674913 -1.10083416 -6.72201056 -0.03832059 0 0 Z M-10.14672852 13.44604492 C-11.30510478 17.50036184 -10.98364108 19.66416611 -9.14672852 23.44604492 C-8.56922852 23.15729492 -7.99172852 22.86854492 -7.39672852 22.57104492 C-6.65422852 22.19979492 -5.91172852 21.82854492 -5.14672852 21.44604492 C-4.5421582 21.0928418 -3.93758789 20.73963867 -3.31469727 20.37573242 C-0.7449389 19.27374595 1.01152004 19.30900941 3.79077148 19.44604492 C7.63035577 19.53678842 10.39142553 19.29236276 13.85327148 17.44604492 C13.85327148 16.12604492 13.85327148 14.80604492 13.85327148 13.44604492 C12.28125977 13.35516602 12.28125977 13.35516602 10.67749023 13.26245117 C9.298571 13.17802755 7.91966544 13.09338045 6.54077148 13.00854492 C5.85047852 12.96922852 5.16018555 12.92991211 4.44897461 12.8894043 C-2.95950552 11.93235311 -2.95950552 11.93235311 -10.14672852 13.44604492 Z " fill="#FDFBF9" transform="translate(268.146728515625,8.553955078125)"/>
<path d="M0 0 C6.25126443 3.87454424 9.20037608 9.36070785 12.3125 15.8125 C13.24877874 17.68160864 14.18895465 19.54876967 15.1328125 21.4140625 C15.60364258 22.34637695 16.07447266 23.27869141 16.55957031 24.23925781 C19.16402184 29.2309761 22.07270174 34.03951851 25.00317383 38.8449707 C28 43.80420111 28 43.80420111 28 46 C24.89951072 47.55024464 22.42105782 47.28992015 19 47 C15.03250921 44.34464174 12.68376606 41.41035821 10.1875 37.375 C9.58292969 36.41335937 8.97835937 35.45171875 8.35546875 34.4609375 C7 32 7 32 7 30 C5.71222656 30.01160156 4.42445313 30.02320312 3.09765625 30.03515625 C1.41927228 30.0445327 -0.25911326 30.05363305 -1.9375 30.0625 C-3.21270508 30.07506836 -3.21270508 30.07506836 -4.51367188 30.08789062 C-5.32255859 30.09111328 -6.13144531 30.09433594 -6.96484375 30.09765625 C-7.7137085 30.10289307 -8.46257324 30.10812988 -9.23413086 30.11352539 C-11 30 -11 30 -12 29 C-12.58007812 30.03640625 -13.16015625 31.0728125 -13.7578125 32.140625 C-14.54615147 33.5108332 -15.33525469 34.88060189 -16.125 36.25 C-16.50398438 36.93191406 -16.88296875 37.61382812 -17.2734375 38.31640625 C-19.87580194 42.78379854 -22.27703529 45.56234079 -27 48 C-30.375 47.75 -30.375 47.75 -33 47 C-34 44 -34 44 -32.33984375 40.59375 C-31.54893315 39.22342204 -30.74747546 37.85914607 -29.9375 36.5 C-29.09316524 35.04460992 -28.24941614 33.58887992 -27.40625 32.1328125 C-26.99117187 31.42286133 -26.57609375 30.71291016 -26.1484375 29.98144531 C-24.69426346 27.47250048 -23.31001288 24.92939897 -21.9375 22.375 C-21.4734375 21.52679687 -21.009375 20.67859375 -20.53125 19.8046875 C-19.69913 18.28054934 -18.86917954 16.7551827 -18.05078125 15.22363281 C-17.02514442 13.30891425 -15.9825303 11.40419048 -14.9375 9.5 C-14.62095459 8.89978027 -14.30440918 8.29956055 -13.97827148 7.68115234 C-10.76871029 1.90147014 -6.74584577 -1.21425224 0 0 Z M-4 15 C-4.33 16.32 -4.66 17.64 -5 19 C-4.01 19 -3.02 19 -2 19 C-2.33 17.68 -2.66 16.36 -3 15 C-3.33 15 -3.66 15 -4 15 Z " fill="#FCF6F5" transform="translate(214,10)"/>
<path d="M0 0 C3.76242747 -0.54868734 5.87030221 -0.77373641 9.0703125 1.41796875 C11.10105638 3.22865103 13.05398838 5.09895923 15 7 C16.66313351 8.33773782 18.32854798 9.67267046 20 11 C20.66 11.66 21.32 12.32 22 13 C23.32 13 24.64 13 26 13 C26.33 12.01 26.66 11.02 27 10 C29.00394011 8.15579424 30.98391598 6.48016656 33.125 4.8125 C33.681875 4.34908203 34.23875 3.88566406 34.8125 3.40820312 C38.92140625 0.19397807 41.63317332 -0.52575783 47 0 C47.9375 2.5 47.9375 2.5 48 6 C45.55205471 9.69430769 42.29957826 12.71421768 39.16015625 15.8203125 C38.61230469 16.39523438 38.06445312 16.97015625 37.5 17.5625 C36.9946875 18.05878906 36.489375 18.55507813 35.96875 19.06640625 C34.33577062 22.32578041 35.04885079 24.56550013 36 28 C37.82987074 30.05253831 39.48912509 31.69083478 41.5625 33.4375 C46.74870614 38.14073712 46.74870614 38.14073712 47.7265625 41.484375 C47.6875 43.6875 47.6875 43.6875 47 47 C41.68201536 47.09225464 38.02710225 46.55357873 34.05859375 42.83984375 C32.83035911 41.55906431 31.62338542 40.2575879 30.4375 38.9375 C29.81037109 38.27427734 29.18324219 37.61105469 28.53710938 36.92773438 C27.00484033 35.30189164 25.49445142 33.66053707 24 32 C19.24311395 36.05430958 14.55555323 40.17269286 9.91796875 44.36328125 C6.56893952 47.22121047 4.3266542 47.0940577 0 47 C-0.75930279 42.44418328 -0.86977835 40.22170125 1.86328125 36.3828125 C4.17181469 33.83624697 6.53735997 31.39740454 9 29 C9.75796875 28.24203125 10.5159375 27.4840625 11.296875 26.703125 C11.85890625 26.14109375 12.4209375 25.5790625 13 25 C11.71178542 19.77771694 9.31185798 16.85944745 5.4375 13.3125 C0.11993243 8.3597973 0.11993243 8.3597973 -1 5 C-0.5625 2.3125 -0.5625 2.3125 0 0 Z " fill="#FCF4F2" transform="translate(75,10)"/>
<path d="M0 0 C8.58 0 17.16 0 26 0 C26 0.33 26 0.66 26 1 C17.75 1 9.5 1 1 1 C1.33 3.97 1.66 6.94 2 10 C8.6 10 15.2 10 22 10 C21.67 10.99 21.34 11.98 21 13 C21 12.34 21 11.68 21 11 C19.66195312 11.10828125 19.66195312 11.10828125 18.296875 11.21875 C17.12640625 11.3115625 15.9559375 11.404375 14.75 11.5 C13.58984375 11.5928125 12.4296875 11.685625 11.234375 11.78125 C8.82731342 11.94404644 6.41256049 12 4 12 C3.957279 13.66611905 3.95936168 15.33382885 4 17 C5.73956658 18.73956658 8.1936622 18.37190386 10.5625 18.5625 C11.57441406 18.64628906 12.58632813 18.73007812 13.62890625 18.81640625 C14.80259766 18.90728516 14.80259766 18.90728516 16 19 C16 19.33 16 19.66 16 20 C11.38 20 6.76 20 2 20 C1.67 22.97 1.34 25.94 1 29 C0.67 29 0.34 29 0 29 C-1.34014363 19.28395867 -1.61525497 9.6915298 0 0 Z " fill="#F7DCDE" transform="translate(19,19)"/>
<path d="M0 0 C2.74999027 3.22824944 3.10429689 4.52148447 4 9 C-0.29 9 -4.58 9 -9 9 C-6.6 3 -6.6 3 -4 1 C-1.8125 0.3125 -1.8125 0.3125 0 0 Z " fill="#FDFCFA" transform="translate(213,30)"/>
<path d="M0 0 C5.88981485 -0.12375961 11.77887012 -0.21441514 17.66967773 -0.2746582 C19.67274156 -0.2997755 21.67571398 -0.33387595 23.6784668 -0.37719727 C26.56061366 -0.43797188 29.44154721 -0.46623732 32.32421875 -0.48828125 C33.21711105 -0.51408768 34.11000336 -0.5398941 35.029953 -0.56648254 C39.56858679 -0.56852187 41.40319295 -0.46239992 45.10473633 2.40551758 C47 5 47 5 47 7 C46.34 7 45.68 7 45 7 C45 6.01 45 5.02 45 4 C43.68 3.67 42.36 3.34 41 3 C41 2.34 41 1.68 41 1 C35.62437333 1.06872358 30.24953601 1.15661316 24.87451172 1.26245117 C23.0451735 1.29575026 21.2157313 1.32376657 19.38623047 1.34643555 C16.75963944 1.37989077 14.13400559 1.43219963 11.5078125 1.48828125 C10.68693146 1.49467117 9.86605042 1.5010611 9.02029419 1.50764465 C6.47385626 1.53942217 6.47385626 1.53942217 3 2 C2.01 3.485 2.01 3.485 1 5 C0.67 3.35 0.34 1.7 0 0 Z " fill="#FEE9E7" transform="translate(127,10)"/>
<path d="M0 0 C3 2 3 2 3.75 4.5625 C3.8325 5.366875 3.915 6.17125 4 7 C1.88165965 9.11834035 -2.84603374 8.16419113 -5.77734375 8.16796875 C-6.65902725 8.17129715 -7.54071075 8.17462555 -8.44911194 8.17805481 C-10.31787594 8.18312783 -12.18664904 8.18546302 -14.05541992 8.18530273 C-16.92186344 8.18748808 -19.7879216 8.20563655 -22.65429688 8.22460938 C-24.46614451 8.22754339 -26.27799398 8.22952813 -28.08984375 8.23046875 C-29.38208107 8.24124702 -29.38208107 8.24124702 -30.70042419 8.25224304 C-36.7711784 8.2288216 -36.7711784 8.2288216 -39 6 C-37.85934082 6.00523682 -36.71868164 6.01047363 -35.54345703 6.01586914 C-31.32048321 6.03393869 -27.09751282 6.04543919 -22.87451172 6.05493164 C-21.04507879 6.05996737 -19.21564991 6.06679627 -17.38623047 6.07543945 C-14.76008102 6.08753824 -12.13398468 6.09323583 -9.5078125 6.09765625 C-8.68693146 6.10281754 -7.86605042 6.10797882 -7.02029419 6.11329651 C-2.87788156 6.22351874 -2.87788156 6.22351874 1 5 C0.505 2.525 0.505 2.525 0 0 Z " fill="#FED4D1" transform="translate(171,49)"/>
<path d="M0 0 C1.32 0.66 2.64 1.32 4 2 C4.33 1.34 4.66 0.68 5 0 C6.794375 0.2165625 6.794375 0.2165625 8.625 0.4375 C11.63729454 0.78821372 14.61405364 1.03093303 17.64453125 1.18359375 C19.52205078 1.27833984 19.52205078 1.27833984 21.4375 1.375 C22.63246094 1.42398438 23.82742187 1.47296875 25.05859375 1.5234375 C26.51458984 1.75933594 26.51458984 1.75933594 28 2 C28.99 3.485 28.99 3.485 30 5 C29.45794922 4.83556396 28.91589844 4.67112793 28.35742188 4.50170898 C25.59410102 3.91361615 23.10629619 3.92194913 20.28125 3.97265625 C18.63576172 3.99102539 18.63576172 3.99102539 16.95703125 4.00976562 C14.65228087 4.04492283 12.34758676 4.08398567 10.04296875 4.12695312 C8.39748047 4.14338867 8.39748047 4.14338867 6.71875 4.16015625 C5.21731445 4.18541382 5.21731445 4.18541382 3.68554688 4.21118164 C0.94396983 3.99559399 -0.6654543 3.40704263 -3 2 C-2.01 1.34 -1.02 0.68 0 0 Z " fill="#FBE9E6" transform="translate(141,44)"/>
<path d="M0 0 C6.6 0 13.2 0 20 0 C19.67 0.99 19.34 1.98 19 3 C19 2.34 19 1.68 19 1 C17.66195312 1.10828125 17.66195312 1.10828125 16.296875 1.21875 C15.12640625 1.3115625 13.9559375 1.404375 12.75 1.5 C11.58984375 1.5928125 10.4296875 1.685625 9.234375 1.78125 C6.82731342 1.94404644 4.41256049 2 2 2 C1.957279 3.66611905 1.95936168 5.33382885 2 7 C3.73956658 8.73956658 6.1936622 8.37190386 8.5625 8.5625 C9.57441406 8.64628906 10.58632813 8.73007812 11.62890625 8.81640625 C12.41136719 8.87699219 13.19382812 8.93757813 14 9 C14 9.33 14 9.66 14 10 C9.38 10 4.76 10 0 10 C-1 7 -1 7 0 0 Z " fill="#FCE8E7" transform="translate(21,29)"/>
<path d="M0 0 C1.32 1.65 2.64 3.3 4 5 C3.34 6.32 2.68 7.64 2 9 C1.67 8.67 1.34 8.34 1 8 C-2.93673644 9.31224548 -5.22719294 10.91910327 -8 14 C-8.8125 12.3125 -8.8125 12.3125 -9 10 C-6.8125 7.1875 -6.8125 7.1875 -4 5 C-1.6875 5.1875 -1.6875 5.1875 0 6 C-0.33 5.01 -0.66 4.02 -1 3 C-1.99 3 -2.98 3 -4 3 C-4 2.34 -4 1.68 -4 1 C-2.68 0.67 -1.36 0.34 0 0 Z " fill="#F6EAE3" transform="translate(212,23)"/>
<path d="M0 0 C1.30351387 3.95113548 1.12612281 7.93824743 1.09765625 12.046875 C1.0962413 12.81807678 1.09482635 13.58927856 1.09336853 14.3838501 C1.08778534 16.83927338 1.07523595 19.29460442 1.0625 21.75 C1.05748283 23.41796743 1.0529203 25.08593629 1.04882812 26.75390625 C1.03782141 30.83597287 1.02056836 34.91797081 1 39 C2.32 39.66 3.64 40.32 5 41 C3.34385343 41.38218767 1.67542976 41.71395102 0 42 C-1.83360654 40.16639346 -1.12870678 37.60966264 -1.13894653 35.16995239 C-1.1369223 34.35332123 -1.13489807 33.53669006 -1.1328125 32.6953125 C-1.13376923 31.86039276 -1.13472595 31.02547302 -1.13571167 30.16525269 C-1.13639362 28.39483566 -1.13453828 26.62441616 -1.13037109 24.85400391 C-1.12503641 22.14349735 -1.13030861 19.43315752 -1.13671875 16.72265625 C-1.13605771 15.00520797 -1.13477601 13.28775979 -1.1328125 11.5703125 C-1.13483673 10.7577298 -1.13686096 9.94514709 -1.13894653 9.10794067 C-1.12524789 5.81672069 -1.04808869 3.14426606 0 0 Z " fill="#FFE7E7" transform="translate(247,15)"/>
<path d="M0 0 C0.66 0.33 1.32 0.66 2 1 C0.54405245 2.31514604 -0.91483579 3.62703717 -2.375 4.9375 C-3.18710938 5.66839844 -3.99921875 6.39929687 -4.8359375 7.15234375 C-8.34428487 10.1477378 -10.45229317 10.09886319 -15 10 C-15 7.36 -15 4.72 -15 2 C-14.34 1.67 -13.68 1.34 -13 1 C-13 3.31 -13 5.62 -13 8 C-5.74772432 5.14299888 -5.74772432 5.14299888 0 0 Z " fill="#FEE6E1" transform="translate(90,47)"/>
<path d="M0 0 C0.94875 0.04125 1.8975 0.0825 2.875 0.125 C2.875 2.105 2.875 4.085 2.875 6.125 C-1.875 7.25 -1.875 7.25 -4.125 6.125 C-4.875 4.1875 -4.875 4.1875 -5.125 2.125 C-3.125 0.125 -3.125 0.125 0 0 Z " fill="#FDFBFB" transform="translate(118.125,10.875)"/>
<path d="M0 0 C0.66 0 1.32 0 2 0 C0.25 4.875 0.25 4.875 -2 6 C-4.25120742 6.08573394 -6.50499303 6.10712188 -8.7578125 6.09765625 C-9.75238968 6.09553383 -9.75238968 6.09553383 -10.76705933 6.09336853 C-12.88641863 6.08776754 -15.00567259 6.075215 -17.125 6.0625 C-18.56119639 6.05748512 -19.99739444 6.05292219 -21.43359375 6.04882812 C-24.95576345 6.03779782 -28.47787145 6.02053259 -32 6 C-28.49247056 3.66164704 -27.24865815 3.80479053 -23.125 3.9453125 C-21.40023438 3.98205078 -21.40023438 3.98205078 -19.640625 4.01953125 C-17.21330298 4.08985066 -14.7861946 4.16797809 -12.359375 4.25390625 C-11.20953125 4.27582031 -10.0596875 4.29773437 -8.875 4.3203125 C-7.82054687 4.35398926 -6.76609375 4.38766602 -5.6796875 4.42236328 C-2.85612327 4.27316017 -2.85612327 4.27316017 -1.2578125 1.97998047 C-0.63519531 0.99989014 -0.63519531 0.99989014 0 0 Z " fill="#FEF1EE" transform="translate(291,32)"/>
<path d="M0 0 C0 0.66 0 1.32 0 2 C-1.64453125 3.40234375 -1.64453125 3.40234375 -3.8125 4.9375 C-8.43721191 8.23123835 -11.08603059 10.55254861 -13 16 C-14.15958728 13.25915733 -14.00270459 12.0088865 -13.125 9.125 C-10.3773619 5.08435573 -5.23073958 0 0 0 Z " fill="#FEE8E5" transform="translate(141,33)"/>
<path d="M0 0 C0.02689216 1.47906892 0.04634621 2.95827483 0.0625 4.4375 C0.07410156 5.26121094 0.08570313 6.08492187 0.09765625 6.93359375 C0 9 0 9 -1 10 C-3.86267567 10.07325168 -6.700719 10.09238205 -9.5625 10.0625 C-10.36880859 10.05798828 -11.17511719 10.05347656 -12.00585938 10.04882812 C-14.00393756 10.03700518 -16.00197783 10.01906914 -18 10 C-18 9.67 -18 9.34 -18 9 C-13.05 8.67 -8.1 8.34 -3 8 C-2.67 6.02 -2.34 4.04 -2 2 C-2.66 1.67 -3.32 1.34 -4 1 C-2 0 -2 0 0 0 Z " fill="#F4C8C9" transform="translate(284,20)"/>
<path d="M0 0 C3.43015461 2.80649013 3.4009765 4.20292951 5 9 C-0.94 9 -6.88 9 -13 9 C-12.67 8.34 -12.34 7.68 -12 7 C-7.71 7.33 -3.42 7.66 1 8 C0.34 5.69 -0.32 3.38 -1 1 C-0.67 0.67 -0.34 0.34 0 0 Z " fill="#FAE6E2" transform="translate(216,31)"/>
<path d="M0 0 C2.475 0.99 2.475 0.99 5 2 C5 4.31 5 6.62 5 9 C4.34 9 3.68 9 3 9 C3 8.01 3 7.02 3 6 C2.01 6.99 1.02 7.98 0 9 C-0.66 8.67 -1.32 8.34 -2 8 C-1.125 1.125 -1.125 1.125 0 0 Z " fill="#FEF3F3" transform="translate(18,45)"/>
<path d="M0 0 C0.66 0.66 1.32 1.32 2 2 C1.9375 3.9375 1.9375 3.9375 1 6 C0.195625 6.474375 -0.60875 6.94875 -1.4375 7.4375 C-4.4803882 9.29291963 -5.00487602 10.65276481 -6 14 C-6.99 13.01 -7.98 12.02 -9 11 C-8.60167969 10.54109375 -8.20335938 10.0821875 -7.79296875 9.609375 C-5.08857938 6.47728415 -2.42008229 3.36122541 0 0 Z " fill="#F7D2CC" transform="translate(108,30)"/>
<path d="M0 0 C3.24271506 0.5590888 4.93057424 1.4132178 7 4 C7 4.66 7 5.32 7 6 C8.65 5.67 10.3 5.34 12 5 C12.33 3.68 12.66 2.36 13 1 C13.66 2.65 14.32 4.3 15 6 C11.89951072 7.55024464 9.42105782 7.28992015 6 7 C2.61060444 4.86320715 1.27417443 3.8225233 0 0 Z " fill="#FEE3E1" transform="translate(227,50)"/>
<path d="M0 0 C0.33 0 0.66 0 1 0 C1.08107583 1.93681161 1.13922475 3.8745934 1.1875 5.8125 C1.22230469 6.89144531 1.25710938 7.97039063 1.29296875 9.08203125 C1 12 1 12 -0.51171875 13.88671875 C-1.00285156 14.25410156 -1.49398437 14.62148438 -2 15 C-2.99 14.67 -3.98 14.34 -5 14 C-5 13.34 -5 12.68 -5 12 C-4.34 12 -3.68 12 -3 12 C-2.67 11.01 -2.34 10.02 -2 9 C-1.34 9 -0.68 9 0 9 C0 6.03 0 3.06 0 0 Z " fill="#FEF2F0" transform="translate(255,40)"/>
<path d="M0 0 C0.33 0.66 0.66 1.32 1 2 C-0.24493748 4.28974316 -1.52641528 6.44190034 -2.9375 8.625 C-3.32357422 9.23601563 -3.70964844 9.84703125 -4.10742188 10.4765625 C-5.06446326 11.9889242 -6.03132811 13.49506117 -7 15 C-7.33 13.68 -7.66 12.36 -8 11 C-7.34 10.67 -6.68 10.34 -6 10 C-4.94647157 7.69034152 -3.94280904 5.3570226 -3 3 C-2.34 3 -1.68 3 -1 3 C-0.67 2.01 -0.34 1.02 0 0 Z " fill="#FEEBE4" transform="translate(201,37)"/>
<path d="M0 0 C1.62490954 -0.02698189 3.24994633 -0.04638757 4.875 -0.0625 C5.77992187 -0.07410156 6.68484375 -0.08570313 7.6171875 -0.09765625 C10 0 10 0 12 1 C12 1.66 12 2.32 12 3 C8.04 3 4.08 3 0 3 C0 2.01 0 1.02 0 0 Z " fill="#FEECED" transform="translate(26,44)"/>
<path d="M0 0 C0.33 0 0.66 0 1 0 C1.02578125 0.69867188 1.0515625 1.39734375 1.078125 2.1171875 C1.13484375 3.02726562 1.1915625 3.93734375 1.25 4.875 C1.29640625 5.77992187 1.3428125 6.68484375 1.390625 7.6171875 C1.75611148 10.17110544 1.75611148 10.17110544 4.046875 11.3203125 C4.69140625 11.54460938 5.3359375 11.76890625 6 12 C4.34385343 12.38218767 2.67542976 12.71395102 1 13 C0 12 0 12 -0.09765625 9.27734375 C-0.08605469 8.17519531 -0.07445312 7.07304688 -0.0625 5.9375 C-0.05347656 4.83277344 -0.04445312 3.72804687 -0.03515625 2.58984375 C-0.02355469 1.73519531 -0.01195312 0.88054688 0 0 Z " fill="#FED1D2" transform="translate(246,44)"/>
<path d="M0 0 C0.33 0.66 0.66 1.32 1 2 C-0.25 5.5625 -0.25 5.5625 -2 9 C-2.99 9.33 -3.98 9.66 -5 10 C-3.66511872 6.40608886 -2.03977277 3.24509304 0 0 Z " fill="#FEE6E5" transform="translate(203,13)"/>
<path d="M0 0 C0.33 0.66 0.66 1.32 1 2 C0.34 2 -0.32 2 -1 2 C-1.103125 2.61875 -1.20625 3.2375 -1.3125 3.875 C-2 6 -2 6 -5 8 C-4.64950425 4.75791433 -4.43778819 3.38472296 -1.9375 1.1875 C-1.298125 0.795625 -0.65875 0.40375 0 0 Z " fill="#FDEEE9" transform="translate(5,0)"/>
<path d="M0 0 C2 2 2 2 2 6 C1.34 6 0.68 6 0 6 C-0.33 5.01 -0.66 4.02 -1 3 C-1.99 3 -2.98 3 -4 3 C-4 2.34 -4 1.68 -4 1 C-2.125 0.375 -2.125 0.375 0 0 Z " fill="#F9D3AA" transform="translate(212,23)"/>
<path d="M0 0 C1.98 0 3.96 0 6 0 C5.625 2.9375 5.625 2.9375 5 6 C4.01 6.495 4.01 6.495 3 7 C3.33 5.02 3.66 3.04 4 1 C2.68 0.67 1.36 0.34 0 0 Z " fill="#FCEEEB" transform="translate(34,30)"/>
<path d="M0 0 C1.4540625 0.0309375 1.4540625 0.0309375 2.9375 0.0625 C3.2675 1.0525 3.5975 2.0425 3.9375 3.0625 C2.1875 3.75 2.1875 3.75 -0.0625 4.0625 C-2.3125 2.625 -2.3125 2.625 -4.0625 1.0625 C-3.0625 0.0625 -3.0625 0.0625 0 0 Z " fill="#F8EDE6" transform="translate(160.0625,17.9375)"/>
<path d="M0 0 C2.4375 0.75 2.4375 0.75 5 2 C5.8125 4.125 5.8125 4.125 6 6 C4.125 5.8125 4.125 5.8125 2 5 C0.75 2.4375 0.75 2.4375 0 0 Z " fill="#FDEBE3" transform="translate(288,11)"/>
<path d="" fill="#FFFFFF" transform="translate(0,0)"/>
<path d="" fill="#FFFFFF" transform="translate(0,0)"/>
<path d="" fill="#FFFFFF" transform="translate(0,0)"/>
<path d="" fill="#FFFFFF" transform="translate(0,0)"/>
<path d="" fill="#FFFFFF" transform="translate(0,0)"/>
<path d="" fill="#FFFFFF" transform="translate(0,0)"/>
<path d="" fill="#FFFFFF" transform="translate(0,0)"/>
<path d="" fill="#FFFFFF" transform="translate(0,0)"/>
</svg>
